

<svg version="1.1" xmlns="http://www.w3.org/2000/svg" xmlns:xlink="http://www.w3.org/1999/xlink" preserveAspectRatio="xMidYMid meet" viewBox="0 0 640 640" width="512" height="512"><defs><path d="M0 0L512 0L512 512L0 512L0 0Z" id="bvqLKZ6E"></path><path d="M74.77 372.92L194.05 45.2" id="apzFJhFMZ"></path><mask id="maskaU3Sn9Evn" x="54.77" y="25.2" width="159.28" height="367.72" maskUnits="userSpaceOnUse"><rect x="54.77" y="25.2" width="159.28" height="367.72" fill="white"></rect><use xlink:href="#apzFJhFMZ" opacity="1" fill="black"></use></mask><path d="M462.72 192.02L135.01 72.74" id="doDcQ4n5F"></path><mask id="maskbQB6vW7SX" x="115.01" y="52.74" width="367.72" height="159.28" maskUnits="userSpaceOnUse"><rect x="115.01" y="52.74" width="367.72" height="159.28" fill="white"></rect><use xlink:href="#doDcQ4n5F" opacity="1" fill="black"></use></mask><path d="M448.43 233.29L120.07 113.78" id="ab7030VLQM"></path><mask id="maska49W66Tl8u" x="100.07" y="93.78" width="368.36" height="159.51" maskUnits="userSpaceOnUse"><rect x="100.07" y="93.78" width="368.36" height="159.51" fill="white"></rect><use xlink:href="#ab7030VLQM" opacity="1" fill="black"></use></mask><path d="M433.72 273.69L105.36 154.18" id="ahPbTeXHO"></path><mask id="maskjI15JJG" x="85.36" y="134.18" width="368.36" height="159.51" maskUnits="userSpaceOnUse"><rect x="85.36" y="134.18" width="368.36" height="159.51" fill="white"></rect><use xlink:href="#ahPbTeXHO" opacity="1" fill="black"></use></mask><path d="M417.5 314.27L89.78 194.99" id="a1jwgeSb3L"></path><mask id="maskb4P1xT12ri" x="69.78" y="174.99" width="367.72" height="159.28" maskUnits="userSpaceOnUse"><rect x="69.78" y="174.99" width="367.72" height="159.28" fill="white"></rect><use xlink:href="#a1jwgeSb3L" opacity="1" fill="black"></use></mask><path d="M402.56 355.32L74.84 236.04" id="aYmE3BRcB"></path><mask id="maskdAfRvonzC" x="54.84" y="216.04" width="367.72" height="159.28" maskUnits="userSpaceOnUse"><rect x="54.84" y="216.04" width="367.72" height="159.28" fill="white"></rect><use xlink:href="#aYmE3BRcB" opacity="1" fill="black"></use></mask><path d="M388.26 396.6L59.9 277.08" id="bH869kJK"></path><mask id="maskd4J7Xmbl1" x="39.9" y="257.08" width="368.36" height="159.51" maskUnits="userSpaceOnUse"><rect x="39.9" y="257.08" width="368.36" height="159.51" fill="white"></rect><use xlink:href="#bH869kJK" opacity="1" fill="black"></use></mask><path d="M373.56 437L45.2 317.49" id="b95cT1hqG"></path><mask id="maskd69x9IUli" x="25.2" y="297.49" width="368.36" height="159.51" maskUnits="userSpaceOnUse"><rect x="25.2" y="297.49" width="368.36" height="159.51" fill="white"></rect><use xlink:href="#b95cT1hqG" opacity="1" fill="black"></use></mask><path d="M115.82 387.85L235.1 60.14" id="j1d7y1lc6Q"></path><mask id="maskbse0lM1bD" x="95.82" y="40.14" width="159.28" height="367.72" maskUnits="userSpaceOnUse"><rect x="95.82" y="40.14" width="159.28" height="367.72" fill="white"></rect><use xlink:href="#j1d7y1lc6Q" opacity="1" fill="black"></use></mask><path d="M153.92 402.9L273.2 75.18" id="fKmxBwekR"></path><mask id="maskb13Idz1huV" x="133.92" y="55.18" width="159.28" height="367.72" maskUnits="userSpaceOnUse"><rect x="133.92" y="55.18" width="159.28" height="367.72" fill="white"></rect><use xlink:href="#fKmxBwekR" opacity="1" fill="black"></use></mask><path d="M195.35 416.8L314.63 89.08" id="a1TTZzVFTU"></path><mask id="maskbBEPdCqf3" x="175.35" y="69.08" width="159.28" height="367.72" maskUnits="userSpaceOnUse"><rect x="175.35" y="69.08" width="159.28" height="367.72" fill="white"></rect><use xlink:href="#a1TTZzVFTU" opacity="1" fill="black"></use></mask><path d="M196.04 415.88L315.32 88.16" id="b120OTGcu5"></path><mask id="maskamPDFQWzk" x="176.04" y="68.16" width="159.28" height="367.72" maskUnits="userSpaceOnUse"><rect x="176.04" y="68.16" width="159.28" height="367.72" fill="white"></rect><use xlink:href="#b120OTGcu5" opacity="1" fill="black"></use></mask><path d="M237.85 431.09L357.13 103.38" id="an3mQ4xhx"></path><mask id="maska4PGZwcXAx" x="217.85" y="83.38" width="159.28" height="367.72" maskUnits="userSpaceOnUse"><rect x="217.85" y="83.38" width="159.28" height="367.72" fill="white"></rect><use xlink:href="#an3mQ4xhx" opacity="1" fill="black"></use></mask><path d="M276.67 446.4L395.95 118.68" id="bYlYJSy7I"></path><mask id="maskfyq4EEH8X" x="256.67" y="98.68" width="159.28" height="367.72" maskUnits="userSpaceOnUse"><rect x="256.67" y="98.68" width="159.28" height="367.72" fill="white"></rect><use xlink:href="#bYlYJSy7I" opacity="1" fill="black"></use></mask><path d="M318.86 460.58L438.14 132.86" id="b1Vo8HjlrE"></path><mask id="maskb14MGGz47b" x="298.86" y="112.86" width="159.28" height="367.72" maskUnits="userSpaceOnUse"><rect x="298.86" y="112.86" width="159.28" height="367.72" fill="white"></rect><use xlink:href="#b1Vo8HjlrE" opacity="1" fill="black"></use></mask></defs><g><g><g><use xlink:href="#bvqLKZ6E" opacity="1" fill="#1f2c6d" fill-opacity="1"></use></g><g><g mask="url(#maskaU3Sn9Evn)"><use xlink:href="#apzFJhFMZ" opacity="1" fill-opacity="0" stroke="#ffffff" stroke-width="20" stroke-opacity="1"></use></g></g><g><g mask="url(#maskbQB6vW7SX)"><use xlink:href="#doDcQ4n5F" opacity="1" fill-opacity="0" stroke="#ffffff" stroke-width="20" stroke-opacity="1"></use></g></g><g><g mask="url(#maska49W66Tl8u)"><use xlink:href="#ab7030VLQM" opacity="1" fill-opacity="0" stroke="#ffffff" stroke-width="20" stroke-opacity="1"></use></g></g><g><g mask="url(#maskjI15JJG)"><use xlink:href="#ahPbTeXHO" opacity="1" fill-opacity="0" stroke="#ffffff" stroke-width="20" stroke-opacity="1"></use></g></g><g><g mask="url(#maskb4P1xT12ri)"><use xlink:href="#a1jwgeSb3L" opacity="1" fill-opacity="0" stroke="#ffffff" stroke-width="20" stroke-opacity="1"></use></g></g><g><g mask="url(#maskdAfRvonzC)"><use xlink:href="#aYmE3BRcB" opacity="1" fill-opacity="0" stroke="#ffffff" stroke-width="20" stroke-opacity="1"></use></g></g><g><g mask="url(#maskd4J7Xmbl1)"><use xlink:href="#bH869kJK" opacity="1" fill-opacity="0" stroke="#ffffff" stroke-width="20" stroke-opacity="1"></use></g></g><g><g mask="url(#maskd69x9IUli)"><use xlink:href="#b95cT1hqG" opacity="1" fill-opacity="0" stroke="#ffffff" stroke-width="20" stroke-opacity="1"></use></g></g><g><g mask="url(#maskbse0lM1bD)"><use xlink:href="#j1d7y1lc6Q" opacity="1" fill-opacity="0" stroke="#ffffff" stroke-width="20" stroke-opacity="1"></use></g></g><g><g mask="url(#maskb13Idz1huV)"><use xlink:href="#fKmxBwekR" opacity="1" fill-opacity="0" stroke="#ffffff" stroke-width="20" stroke-opacity="1"></use></g></g><g><g mask="url(#maskbBEPdCqf3)"><use xlink:href="#a1TTZzVFTU" opacity="1" fill-opacity="0" stroke="#ffffff" stroke-width="20" stroke-opacity="1"></use></g></g><g><g mask="url(#maskamPDFQWzk)"><use xlink:href="#b120OTGcu5" opacity="1" fill-opacity="0" stroke="#ffffff" stroke-width="20" stroke-opacity="1"></use></g></g><g><g mask="url(#maska4PGZwcXAx)"><use xlink:href="#an3mQ4xhx" opacity="1" fill-opacity="0" stroke="#ffffff" stroke-width="20" stroke-opacity="1"></use></g></g><g><g mask="url(#maskfyq4EEH8X)"><use xlink:href="#bYlYJSy7I" opacity="1" fill-opacity="0" stroke="#ffffff" stroke-width="20" stroke-opacity="1"></use></g></g><g><g mask="url(#maskb14MGGz47b)"><use xlink:href="#b1Vo8HjlrE" opacity="1" fill-opacity="0" stroke="#ffffff" stroke-width="20" stroke-opacity="1"></use></g></g></g></g></svg>